<?xml version="1.0" standalone="no"?>
<!DOCTYPE svg PUBLIC "-//W3C//DTD SVG 20010904//EN"
 "http://www.w3.org/TR/2001/REC-SVG-20010904/DTD/svg10.dtd">
<svg version="1.0" xmlns="http://www.w3.org/2000/svg"
 width="1080.000000pt" height="1080.000000pt" viewBox="0 0 1080.000000 1080.000000"
 preserveAspectRatio="xMidYMid meet">
<metadata>
Created by potrace 1.14, written by Peter Selinger 2001-2017
</metadata>
<g transform="translate(0.000000,1080.000000) scale(0.100000,-0.100000)"
fill="#000000" stroke="none">
<path d="M944 10785 c-4 -8 -10 -13 -14 -10 -5 3 -12 0 -16 -6 -4 -7 -3 -9 3
-6 6 4 14 0 17 -9 3 -9 2 -12 -4 -9 -7 4 -9 -3 -6 -19 3 -17 1 -24 -6 -20 -7
5 -9 -2 -6 -19 3 -15 2 -24 -2 -22 -4 3 -16 -5 -26 -16 -10 -11 -14 -20 -9
-19 26 6 26 -2 -1 -26 -16 -15 -23 -23 -16 -20 13 8 17 -6 5 -18 -11 -10 -12
-37 -2 -30 5 3 9 -2 9 -11 0 -9 -4 -14 -8 -11 -5 3 -7 -13 -5 -35 2 -22 -1
-39 -7 -39 -7 0 -7 -6 0 -19 7 -14 7 -22 -2 -27 -7 -5 -9 -2 -4 7 4 8 1 6 -7
-3 -8 -10 -16 -15 -19 -13 -3 3 -4 -8 -3 -25 1 -16 -2 -30 -7 -30 -5 0 -6 -4
-3 -10 4 -6 -1 -7 -11 -3 -14 5 -15 3 -5 -15 10 -18 9 -21 -4 -16 -8 4 -15 1
-15 -6 0 -6 -4 -9 -9 -6 -10 7 -9 -13 2 -31 4 -6 1 -14 -5 -16 -10 -4 -10 -6
0 -6 6 -1 12 -13 12 -27 0 -18 -4 -24 -13 -21 -8 3 -15 0 -16 -6 -7 -29 -8
-316 -1 -312 8 5 33 -41 36 -70 1 -11 3 -25 5 -30 2 -10 -8 -36 -67 -163 -19
-41 -34 -82 -34 -93 0 -10 -5 -19 -10 -19 -6 0 -10 -6 -9 -12 6 -47 -1 -56
-61 -78 -33 -12 -58 -26 -55 -30 12 -20 -26 -39 -70 -35 -30 2 -45 0 -45 -8 0
-8 -3 -8 -8 -2 -10 14 -55 12 -60 -3 -3 -10 -7 -10 -18 -1 -12 10 -13 9 -8 -5
4 -11 2 -16 -7 -14 -7 2 -14 -4 -14 -12 0 -8 -6 -14 -12 -13 -6 1 -18 -13 -28
-33 -9 -20 -21 -32 -27 -28 -8 5 -9 1 -5 -10 4 -10 1 -19 -8 -22 -8 -4 -12
-11 -8 -17 4 -7 0 -8 -12 -3 -16 6 -16 4 -4 -11 8 -10 9 -14 2 -10 -7 5 -17
-2 -24 -15 -12 -22 -11 -22 7 -8 14 12 14 9 -4 -14 -17 -22 -20 -32 -11 -43
10 -11 8 -12 -7 -6 -16 6 -17 4 -6 -9 10 -13 7 -20 -15 -43 -16 -16 -22 -25
-15 -21 7 4 12 1 12 -8 0 -9 -5 -16 -11 -16 -5 0 -7 -5 -3 -12 5 -8 1 -9 -12
-5 -18 7 -18 7 0 -8 11 -8 14 -15 8 -15 -7 0 -12 -7 -12 -15 0 -8 -6 -14 -12
-13 -9 2 -12 -8 -10 -30 1 -23 -1 -31 -9 -26 -8 4 -9 3 -5 -5 4 -6 2 -19 -6
-28 -9 -12 -9 -15 -1 -9 9 5 11 2 7 -8 -3 -9 -9 -15 -12 -14 -19 2 -25 -3 -13
-11 12 -8 12 -12 -2 -26 -10 -9 -18 -19 -18 -23 -3 -13 -8 -47 -11 -67 -2 -11
-9 -24 -17 -29 -11 -7 -11 -10 0 -17 8 -5 9 -9 3 -9 -7 0 -9 -15 -4 -45 4 -25
3 -48 -1 -50 -4 -3 -4 -18 -1 -33 4 -15 7 -43 7 -62 0 -19 7 -40 15 -47 13
-11 13 -12 0 -13 -10 0 -11 -3 -3 -11 6 -6 9 -18 6 -26 -3 -8 0 -19 8 -24 12
-7 12 -9 -1 -9 -12 0 -13 -2 -1 -9 9 -6 14 -27 14 -60 0 -28 3 -48 8 -46 4 3
8 -3 8 -12 2 -48 7 -79 15 -92 7 -11 6 -12 -5 -6 -8 5 -5 -2 6 -15 12 -14 14
-20 5 -15 -12 7 -13 6 -4 -6 6 -8 10 -38 10 -66 -1 -29 2 -53 6 -53 5 0 7 -3
7 -7 -4 -22 2 -33 13 -27 10 6 10 4 2 -7 -12 -16 -11 -99 1 -119 5 -8 4 -11
-2 -7 -5 3 -9 -8 -9 -28 1 -20 6 -35 13 -35 7 0 10 -12 8 -30 -2 -16 -1 -30 3
-30 4 0 8 -9 9 -20 1 -13 -2 -18 -10 -14 -7 4 -8 3 -4 -2 5 -5 13 -10 18 -10
22 -3 23 -5 9 -14 -10 -6 -11 -10 -2 -10 6 0 12 -9 12 -20 0 -11 5 -20 12 -20
9 0 9 -3 1 -11 -6 -6 -9 -18 -6 -26 5 -12 7 -12 14 -1 5 8 7 -2 5 -24 -2 -21
0 -35 5 -32 5 3 9 0 9 -6 0 -6 6 -8 12 -4 7 4 10 4 6 -1 -4 -4 -2 -15 5 -23 9
-13 9 -14 -1 -8 -6 4 -12 2 -12 -3 0 -6 7 -11 15 -11 8 0 14 -3 14 -7 -4 -22
2 -33 13 -27 10 6 10 5 1 -7 -10 -12 -8 -17 8 -27 10 -7 19 -19 19 -28 0 -8 5
-12 10 -9 6 3 10 -3 10 -14 0 -12 5 -21 11 -21 5 0 7 -5 3 -12 -5 -8 -2 -9 11
-4 15 5 16 4 5 -9 -9 -11 -9 -15 -1 -15 7 0 9 -5 5 -11 -4 -8 0 -8 15 0 12 7
21 8 20 4 -4 -25 14 -51 33 -48 16 4 18 2 8 -10 -10 -12 -9 -15 4 -15 11 0 15
-5 10 -12 -6 -10 -4 -10 7 0 7 6 17 12 22 12 5 0 5 -6 -1 -12 -7 -9 -6 -17 4
-26 11 -10 14 -10 15 0 1 7 4 2 8 -11 3 -13 18 -30 31 -39 23 -13 24 -13 6 2
-11 9 -15 16 -8 16 13 0 43 -40 37 -51 -3 -4 2 -10 11 -13 9 -4 13 -2 8 5 -3
6 5 4 18 -5 14 -9 29 -13 33 -9 5 5 4 0 -3 -9 -11 -14 -10 -16 7 -11 16 4 21
1 21 -13 0 -16 2 -17 10 -4 8 13 10 12 10 -4 0 -16 2 -17 17 -5 11 10 14 10 9
2 -4 -8 -2 -13 5 -13 8 0 9 -4 0 -13 -8 -11 -4 -13 21 -9 21 3 29 1 24 -7 -4
-6 -1 -11 9 -11 9 0 13 -4 10 -10 -3 -6 1 -7 9 -4 9 3 16 1 16 -4 0 -6 9 -9
20 -7 11 2 23 -1 26 -7 5 -7 2 -8 -7 -3 -11 6 -12 5 -2 -5 10 -11 15 -11 28 0
13 11 14 10 9 -4 -6 -15 5 -21 30 -17 4 1 19 -11 32 -26 17 -20 20 -30 12 -40
-6 -7 -6 -13 -1 -13 5 0 9 -15 9 -34 -1 -23 -4 -32 -11 -26 -8 6 -11 -7 -10
-40 0 -28 -3 -50 -6 -50 -8 0 -5 -33 5 -48 4 -7 2 -12 -6 -12 -8 0 -9 -3 -3
-8 12 -8 15 -52 4 -52 -4 0 -4 -13 1 -30 6 -21 5 -30 -3 -30 -8 0 -8 -3 1 -12
7 -7 8 -17 2 -29 -7 -12 -6 -20 0 -24 6 -4 8 -10 5 -15 -3 -5 3 -13 12 -19 17
-10 17 -10 -2 -11 -11 -1 -14 -4 -7 -7 6 -2 10 -9 6 -14 -3 -5 -2 -9 3 -9 12
0 10 -174 -2 -182 -7 -5 -7 -8 0 -8 11 0 12 -71 1 -89 -4 -6 -3 -11 1 -11 5 0
9 -9 10 -20 1 -11 -2 -18 -7 -15 -4 3 -4 -11 0 -29 5 -22 3 -39 -3 -45 -7 -7
-7 -11 -1 -11 5 0 10 -9 11 -20 1 -11 -2 -18 -7 -15 -4 3 -4 -11 0 -29 5 -22
3 -39 -3 -45 -8 -8 -8 -11 0 -11 12 0 12 -18 1 -36 -4 -6 2 -21 13 -32 13 -14
15 -22 7 -22 -8 0 -9 -3 -3 -8 6 -4 10 -14 10 -22 0 -8 -4 -18 -10 -22 -7 -5
-6 -8 1 -8 5 0 10 -11 10 -25 0 -14 -4 -25 -9 -25 -4 0 -5 -6 0 -12 11 -19 12
-37 2 -44 -5 -3 -6 -11 -2 -17 4 -6 8 -25 8 -42 2 -39 8 -58 19 -67 6 -4 5
-12 -3 -21 -7 -9 -8 -18 -3 -21 6 -3 9 -24 7 -46 -1 -22 1 -37 6 -35 11 7 18
-24 14 -65 -2 -19 2 -41 7 -47 7 -9 6 -18 -3 -30 -10 -11 -10 -14 -1 -9 7 4
13 2 14 -6 4 -38 6 -55 7 -71 1 -12 5 -16 13 -11 8 5 7 1 -2 -10 -13 -16 -12
-20 9 -37 14 -11 18 -19 10 -19 -12 0 -12 -2 0 -9 8 -5 11 -16 8 -25 -3 -8 0
-22 8 -29 10 -11 11 -17 3 -25 -8 -8 -7 -13 4 -17 10 -4 14 -16 12 -36 -2 -16
0 -29 5 -29 5 0 11 -9 14 -20 3 -11 0 -20 -5 -20 -6 0 -3 -10 8 -22 10 -12 14
-18 7 -15 -7 5 -10 1 -9 -10 2 -9 8 -19 15 -21 9 -3 9 -7 0 -18 -6 -8 -7 -14
-3 -14 5 0 8 -26 7 -57 -1 -32 -2 -68 -2 -81 -1 -13 -5 -21 -10 -18 -5 4 -8
-5 -6 -19 1 -14 -3 -25 -9 -25 -7 0 -7 -3 -1 -8 10 -7 15 -72 5 -72 -3 0 -4
-18 -3 -41 1 -30 -2 -39 -12 -35 -10 3 -11 -2 -6 -22 5 -15 4 -37 0 -50 -6
-15 -5 -22 3 -22 7 0 3 -7 -8 -15 -12 -9 -14 -14 -6 -15 7 0 10 -5 7 -10 -4
-6 -11 -7 -17 -4 -6 4 -6 -1 1 -14 6 -12 7 -23 3 -26 -5 -3 -8 -19 -7 -37 1
-17 -3 -33 -9 -35 -6 -2 -11 -31 -11 -68 0 -35 -3 -62 -7 -60 -7 5 -13 -27 -9
-49 1 -4 -3 -16 -8 -26 -7 -12 -6 -22 2 -30 9 -10 8 -11 -4 -6 -13 5 -16 -1
-14 -29 2 -19 6 -40 11 -48 7 -11 5 -11 -9 0 -14 12 -16 11 -12 -7 2 -12 -1
-21 -6 -21 -6 0 -8 -4 -5 -9 8 -13 -4 -42 -15 -35 -5 3 -6 -2 -3 -10 3 -9 1
-16 -6 -16 -6 0 -8 -5 -5 -10 4 -6 12 -7 18 -3 8 4 8 1 -1 -9 -7 -9 -11 -22
-10 -29 2 -8 -3 -13 -11 -11 -12 3 -12 0 -1 -13 11 -13 10 -14 -5 -9 -13 5
-16 4 -11 -4 4 -7 1 -12 -8 -12 -8 0 -24 -11 -35 -26 -23 -29 -30 -31 -43 -12
-6 8 -7 5 -2 -12 6 -23 6 -24 -11 -10 -13 10 -16 11 -11 2 5 -9 1 -15 -14 -19
-11 -3 -19 -11 -17 -18 3 -6 -1 -12 -9 -12 -7 0 -11 4 -8 9 3 4 -2 5 -10 2 -9
-3 -13 -11 -9 -17 4 -6 0 -8 -10 -4 -11 4 -17 1 -17 -8 0 -8 -4 -15 -10 -15
-5 0 -10 6 -10 13 0 8 -3 7 -9 -3 -6 -8 -8 -17 -5 -21 2 -4 -1 -11 -7 -15 -8
-4 -9 -3 -5 4 4 7 2 12 -3 12 -6 0 -11 -5 -11 -10 0 -6 -6 -9 -12 -8 -7 2 -12
-2 -11 -9 1 -6 -4 -14 -13 -17 -10 -4 -13 -2 -8 6 4 7 3 8 -4 4 -7 -4 -12 -14
-12 -22 0 -8 -4 -12 -10 -9 -5 3 -10 2 -10 -3 0 -5 -11 -8 -25 -7 -14 2 -23
-1 -19 -6 3 -5 11 -6 17 -2 7 4 6 -1 -2 -11 -8 -9 -20 -15 -27 -12 -7 3 -15
-2 -18 -10 -4 -11 -13 -13 -27 -9 -13 5 -19 3 -15 -3 8 -14 -15 -28 -42 -26
-16 1 -21 -3 -18 -13 3 -8 1 -11 -4 -8 -6 3 -10 1 -10 -6 0 -8 -5 -7 -17 2
-11 10 -14 10 -9 2 4 -8 2 -13 -4 -13 -6 0 -9 -4 -5 -9 3 -6 -6 -8 -21 -5 -14
3 -23 1 -20 -5 3 -5 -1 -12 -10 -15 -10 -4 -13 -2 -9 7 4 6 -2 1 -13 -12 -15
-18 -21 -21 -25 -10 -3 9 -6 10 -6 2 -1 -7 -8 -10 -18 -7 -15 5 -16 4 -3 -5
13 -10 13 -13 -4 -26 -10 -8 -22 -12 -26 -10 -4 2 -6 -6 -5 -18 1 -12 -2 -28
-8 -35 -6 -8 -6 -12 1 -12 12 0 11 -18 -2 -39 -6 -10 -5 -12 2 -7 7 4 12 2 12
-4 0 -6 5 -8 12 -4 9 5 9 2 -1 -9 -10 -13 -10 -17 -1 -17 7 0 10 -6 7 -14 -3
-7 0 -19 6 -26 7 -8 7 -10 1 -7 -6 3 -11 0 -11 -7 0 -8 6 -12 14 -9 7 3 13 -2
13 -10 0 -8 -6 -18 -13 -20 -8 -4 -8 -6 0 -6 6 -1 9 -10 6 -21 -3 -11 -1 -20
5 -20 6 0 8 -8 5 -18 -3 -12 4 -23 19 -30 13 -7 15 -10 6 -8 -12 4 -15 1 -11
-10 3 -7 12 -14 20 -14 10 0 14 -7 10 -20 -3 -11 -1 -20 4 -20 4 0 7 -23 6
-51 -1 -34 2 -53 10 -56 8 -3 13 -22 13 -46 0 -22 3 -38 6 -34 3 3 12 0 19 -6
10 -9 10 -15 1 -26 -8 -12 -8 -13 1 -7 9 5 13 0 13 -13 0 -12 4 -21 9 -21 5 0
12 -7 15 -16 5 -12 3 -14 -7 -8 -7 5 -4 1 7 -9 12 -11 20 -31 20 -48 -1 -16 3
-29 9 -29 5 0 3 -8 -4 -17 -10 -11 -10 -14 -2 -9 8 4 13 1 13 -8 0 -9 5 -16
11 -16 8 0 8 -4 -1 -14 -9 -12 -8 -17 9 -28 16 -10 18 -15 8 -27 -9 -12 -9
-13 0 -7 7 4 13 3 13 -3 0 -5 -3 -11 -8 -14 -4 -2 -1 -2 6 -1 13 4 19 -6 24
-41 2 -11 12 -26 23 -33 13 -9 14 -12 4 -8 -13 3 -15 0 -12 -15 3 -10 10 -19
15 -19 5 0 8 -6 7 -13 -3 -22 1 -37 9 -36 19 3 25 -2 12 -11 -13 -8 -13 -10 1
-10 9 0 22 -11 29 -25 9 -17 17 -22 25 -15 17 14 27 0 13 -19 -7 -9 -8 -13 -4
-9 5 4 15 0 23 -10 10 -11 12 -12 8 -2 -4 10 -2 9 8 -2 8 -10 17 -15 20 -11 8
7 9 2 11 -40 1 -16 8 -32 16 -37 14 -9 7 -14 -13 -11 -5 1 -6 -3 -2 -9 3 -6 9
-8 13 -6 4 2 12 -2 19 -9 8 -8 9 -15 2 -17 -5 -2 -3 -12 6 -23 9 -11 14 -14
10 -7 -3 6 -1 12 5 12 7 0 9 -8 5 -20 -4 -12 -2 -20 5 -20 6 0 8 -5 5 -10 -3
-6 2 -10 12 -11 10 0 13 -3 6 -6 -10 -3 -10 -10 -2 -24 5 -11 8 -23 5 -28 -3
-4 4 -17 14 -29 11 -12 20 -31 20 -42 0 -13 4 -19 11 -14 8 4 8 0 0 -15 -7
-12 -8 -21 -4 -20 4 1 17 1 28 -1 l20 -1 -20 -9 c-18 -8 -18 -9 -2 -9 10 -1
15 -6 12 -11 -3 -5 -1 -10 4 -10 6 0 11 -7 11 -15 0 -8 16 -31 35 -51 33 -33
48 -63 25 -49 -6 3 -7 -1 -4 -9 3 -9 13 -16 21 -16 13 0 13 -3 3 -15 -11 -13
-10 -14 5 -9 13 5 16 4 11 -4 -4 -7 -2 -12 3 -12 6 0 10 -6 9 -13 -2 -6 3 -11
10 -9 16 3 16 -10 0 -27 -11 -10 -10 -12 2 -9 9 2 14 -5 15 -19 0 -12 4 -25 9
-30 5 -5 6 -2 1 6 -6 10 -4 12 4 7 9 -6 9 -11 1 -21 -9 -10 -7 -16 9 -25 18
-9 20 -8 15 7 -5 17 -5 17 6 0 6 -9 8 -22 5 -27 -4 -6 1 -7 11 -3 13 5 15 2 9
-16 -3 -12 -3 -21 2 -20 20 3 34 -2 28 -11 -3 -5 2 -10 12 -10 15 0 16 -2 3
-10 -13 -8 -12 -10 4 -10 13 0 16 -5 12 -16 -4 -11 -2 -15 8 -11 19 7 28 -17
13 -33 -10 -10 -8 -12 7 -6 15 5 17 2 13 -15 -3 -11 -3 -19 -1 -16 6 6 54 -37
54 -48 0 -18 48 -49 71 -47 3 1 5 -10 3 -23 -2 -21 0 -23 17 -15 15 9 17 8 12
-6 -5 -13 -3 -15 7 -9 10 6 12 4 7 -7 -7 -21 3 -31 18 -18 9 8 14 6 19 -5 4
-11 2 -14 -6 -9 -7 4 -8 3 -4 -4 4 -7 14 -12 22 -12 8 0 14 -8 14 -17 0 -15 2
-16 10 -3 8 12 10 11 10 -7 0 -15 5 -21 14 -17 8 3 17 0 21 -5 3 -6 12 -8 18
-5 7 4 9 3 4 -1 -4 -5 3 -20 15 -34 19 -22 18 -22 -13 4 -20 17 -17 12 9 -12
24 -24 50 -43 58 -43 8 0 14 -5 14 -11 0 -5 -5 -7 -12 -3 -7 4 -8 3 -4 -4 4
-6 13 -9 21 -5 8 3 15 0 15 -6 0 -15 37 -51 44 -43 3 3 17 -4 29 -16 13 -12
26 -20 29 -17 3 3 3 -7 1 -22 -4 -22 -2 -25 6 -13 9 13 11 13 11 -1 0 -9 9
-19 21 -22 12 -3 18 -10 15 -16 -4 -5 -1 -13 5 -17 8 -4 9 -3 5 4 -4 7 -2 12
3 12 6 0 11 -6 11 -14 0 -21 21 -31 32 -15 7 10 7 7 3 -8 -5 -19 -3 -22 12
-16 16 6 17 5 3 -12 -9 -11 -10 -16 -3 -11 8 4 13 2 13 -6 0 -9 3 -9 10 2 8
12 10 11 10 -6 0 -12 7 -28 17 -35 15 -13 15 -12 3 11 -12 23 -12 24 3 11 10
-7 17 -20 17 -27 0 -13 13 -19 34 -15 5 1 3 -5 -4 -14 -11 -13 -10 -14 5 -8
14 5 17 3 13 -9 -4 -8 -1 -15 8 -15 7 0 11 5 8 11 -3 6 1 2 10 -8 8 -10 13
-22 11 -26 -3 -4 9 -13 25 -20 19 -8 30 -20 31 -34 1 -19 2 -18 9 4 8 24 8 24
9 3 1 -13 6 -23 12 -23 5 0 7 -5 3 -12 -5 -7 -2 -9 7 -6 20 8 41 -16 27 -30
-8 -8 -6 -12 8 -13 10 -1 952 -3 2092 -5 1906 -3 2073 -2 2068 13 -6 14 -4 14
11 2 14 -12 16 -12 8 0 -6 11 -4 13 10 7 14 -5 16 -4 7 7 -16 19 -3 28 21 16
14 -8 18 -8 13 0 -4 6 -2 11 4 11 6 0 8 5 4 13 -5 7 0 6 11 -3 12 -10 16 -10
11 -2 -11 19 12 41 37 37 22 -4 22 -4 2 12 -18 14 -18 15 -1 9 13 -5 17 -2 13
8 -4 11 -1 13 10 9 12 -5 14 -2 9 8 -4 8 0 5 8 -5 12 -15 16 -16 16 -5 0 8 8
23 17 34 13 16 15 17 10 3 -4 -10 -2 -18 3 -18 6 0 10 4 10 8 0 15 40 56 58
58 9 2 18 8 20 13 2 6 12 11 21 11 10 0 26 9 36 20 10 11 22 17 27 14 6 -4 7
3 3 17 -7 23 -6 23 7 5 14 -17 15 -18 21 -2 4 10 4 23 0 29 -4 7 2 5 12 -3 15
-12 17 -12 10 -1 -6 11 -4 13 10 7 15 -5 16 -4 5 9 -12 14 -7 20 14 16 5 -1 6
5 3 14 -4 8 -2 15 4 15 6 0 21 8 34 19 19 14 21 21 12 30 -9 10 -8 11 7 5 14
-5 17 -4 11 5 -5 10 -2 11 14 6 13 -4 21 -2 21 5 0 6 -4 9 -9 5 -5 -3 -13 0
-17 6 -4 7 -3 9 4 5 6 -3 14 -1 18 5 4 8 9 7 15 -2 7 -11 9 -10 9 4 0 9 5 17
11 17 5 0 7 5 3 11 -5 8 -1 8 14 0 16 -8 23 -6 38 12 19 21 19 21 -1 7 -19
-14 -19 -14 -6 3 8 10 20 16 28 13 11 -5 11 -1 2 17 -9 17 -9 20 1 10 10 -9
18 -5 38 15 16 17 23 21 19 10 -3 -10 -1 -20 6 -24 7 -4 9 -4 5 1 -4 4 0 14
10 22 9 8 11 12 5 8 -7 -3 -13 -1 -13 4 0 6 5 11 11 11 5 0 7 5 3 11 -5 8 -1
8 14 0 18 -9 19 -8 14 11 -4 18 -2 20 18 15 17 -4 20 -3 11 6 -6 6 -11 16 -11
21 0 6 4 5 9 -3 11 -17 34 -4 27 16 -3 8 -1 11 4 8 6 -3 10 -1 10 4 0 6 6 10
13 9 11 -3 12 4 5 31 -2 5 2 9 7 9 6 0 9 -5 7 -12 -2 -7 1 -6 10 2 7 7 13 18
13 24 0 6 6 13 14 16 9 3 11 0 6 -9 -5 -8 1 -6 12 4 13 11 19 26 16 38 -3 11
-2 19 3 18 20 -3 34 2 34 12 0 5 -5 7 -12 3 -7 -4 -8 -3 -4 5 6 9 11 9 21 1
15 -12 45 27 45 60 0 13 11 25 33 34 17 8 26 15 20 15 -7 1 -13 6 -13 12 0 6
7 9 15 6 8 -4 17 -2 20 4 4 5 10 7 14 5 4 -3 8 1 8 9 0 13 -4 12 -19 -2 -11
-9 -18 -11 -18 -5 0 7 4 12 9 12 17 0 62 50 55 62 -5 8 -2 9 10 5 12 -5 15 -3
9 6 -11 18 -13 38 -2 31 5 -3 7 -11 3 -17 -3 -7 1 -4 9 5 8 10 17 15 20 11 4
-3 5 4 2 15 -2 14 3 23 15 27 11 3 33 25 51 48 l31 42 -35 -39 c-25 -28 -36
-35 -42 -26 -5 8 -4 11 2 7 6 -4 21 9 34 28 13 19 31 35 39 35 13 0 13 1 0 10
-13 8 -13 10 1 10 9 0 20 7 23 16 4 10 2 13 -7 9 -6 -4 -3 1 7 9 11 9 16 16
12 16 -5 0 -3 6 3 13 6 8 7 18 3 23 -4 4 1 2 11 -5 15 -12 17 -12 11 4 -5 13
-4 16 4 11 8 -5 10 -1 5 10 -4 10 -2 15 4 11 5 -3 10 0 10 8 0 8 -5 15 -11 15
-6 0 -4 4 4 9 8 6 18 7 22 5 4 -3 8 0 8 6 0 6 5 8 10 5 6 -3 10 -1 10 5 0 6 5
8 12 4 6 -4 8 -3 4 4 -3 6 1 18 10 26 8 9 11 16 5 16 -5 0 -17 -10 -25 -22 -9
-12 -18 -20 -20 -17 -8 8 44 60 54 54 6 -3 7 1 4 9 -3 9 -2 16 4 16 5 0 12 7
15 14 4 11 1 13 -11 10 -13 -5 -14 -4 -4 4 8 5 13 12 13 16 -1 14 12 35 19 31
11 -7 23 31 15 45 -3 6 1 7 9 4 12 -5 16 1 16 21 0 14 4 24 9 20 5 -3 12 -1
15 4 4 5 1 13 -5 16 -7 5 -3 15 12 31 12 13 26 21 31 17 6 -3 5 4 -1 15 -9 17
-8 23 6 31 10 6 14 11 9 11 -6 0 -1 7 10 16 10 8 13 13 7 9 -19 -9 -15 16 5
32 9 8 11 12 5 8 -7 -3 -13 -1 -13 4 0 6 8 11 18 11 14 0 15 2 2 10 -12 8 -12
10 -1 10 8 0 12 3 8 6 -3 3 -2 16 3 29 6 15 4 27 -3 34 -9 9 -8 11 7 5 16 -6
18 -4 14 14 -4 12 -1 25 4 29 7 4 8 1 3 -7 -5 -8 -4 -11 2 -7 5 3 9 22 8 42 0
19 3 35 7 35 4 0 4 7 1 17 -4 10 -2 14 4 10 6 -4 13 0 16 8 4 10 1 12 -11 8
-14 -6 -15 -4 -5 9 8 8 11 32 9 56 -3 28 -1 40 7 35 6 -4 8 0 4 10 -4 10 -2
17 5 17 7 0 6 5 -2 15 -11 13 -10 14 5 9 14 -6 16 -4 9 7 -4 8 -7 22 -5 33 1
10 -3 23 -11 27 -10 7 -9 9 5 9 12 0 16 4 11 12 -9 15 -12 168 -3 168 3 0 3
23 -1 50 -4 28 -4 50 -1 50 3 0 5 34 3 75 -3 57 0 75 10 75 10 0 9 3 -2 10
-10 6 -11 10 -2 10 6 0 12 5 12 11 0 5 -4 7 -10 4 -16 -10 -11 1 7 16 10 8 14
9 10 2 -4 -6 -3 -14 2 -17 5 -3 8 7 7 23 -1 17 1 28 5 25 4 -2 12 3 19 11 7 8
16 12 21 9 5 -3 6 2 2 12 -5 15 -7 15 -15 0 -5 -9 -13 -16 -18 -16 -6 0 -2 9
7 20 13 15 20 17 32 7 9 -6 13 -8 9 -3 -9 10 14 36 26 29 4 -3 5 5 1 17 -5 15
-3 20 3 16 6 -3 12 4 14 16 2 14 10 23 20 23 9 0 20 4 25 9 4 5 3 6 -4 2 -6
-3 -14 -2 -17 3 -4 5 4 11 16 13 16 2 22 9 20 21 -3 15 14 23 41 18 5 -1 6 3
2 9 -3 6 -12 7 -18 4 -7 -4 -8 -3 -4 2 5 5 13 10 18 10 22 3 23 5 9 14 -9 6
-10 10 -3 10 6 0 10 9 8 20 -3 17 -1 19 17 9 13 -7 18 -7 14 -1 -4 6 1 15 11
20 11 7 17 24 18 53 1 35 5 44 19 43 14 -2 15 1 4 14 -7 9 -8 13 -3 10 6 -3
19 4 30 15 11 11 14 16 6 12 -10 -6 -12 -4 -7 4 5 7 15 10 23 6 13 -4 14 -3 3
10 -10 12 -10 15 3 15 9 0 19 5 23 12 5 7 2 9 -7 4 -8 -4 -6 -1 4 7 19 16 23
32 5 21 -7 -4 -2 7 11 25 16 22 27 29 34 22 9 -6 13 -1 14 17 4 42 9 61 16 68
4 4 7 16 7 26 0 30 85 168 141 228 13 14 33 45 43 68 19 41 20 42 62 38 33 -3
41 -1 37 10 -5 12 8 19 30 15 4 0 7 3 7 9 0 14 -12 12 -38 -5 -20 -15 -21 -15
-15 2 6 16 5 17 -11 3 -17 -13 -18 -11 -15 21 2 19 0 40 -5 47 -4 6 -2 12 3
12 6 0 10 3 9 8 -5 12 39 62 47 54 5 -4 5 -2 1 5 -4 7 -14 10 -24 7 -9 -2 -7
1 5 7 13 7 23 20 23 30 0 10 5 21 11 24 6 4 8 14 5 22 -4 9 -2 11 6 7 8 -5 9
-2 5 9 -4 11 -1 17 8 17 8 0 14 3 14 8 -3 20 2 32 12 26 8 -4 8 0 0 15 -10 17
-9 21 3 21 10 0 13 7 11 20 -2 11 0 18 4 15 10 -6 23 23 16 35 -3 4 2 10 9 13
8 3 17 1 20 -6 3 -9 5 -9 5 1 2 21 31 13 31 -8 0 -22 15 -27 26 -8 5 7 3 8 -6
3 -9 -5 -11 -2 -7 11 9 30 11 129 3 142 -4 7 -3 12 3 12 6 0 8 6 5 14 -3 8 -1
17 5 21 6 3 11 12 11 18 0 7 -4 6 -10 -3 -7 -10 -10 -11 -10 -2 0 7 7 15 15
18 8 4 12 11 8 17 -3 6 -1 7 6 3 6 -4 9 -11 7 -15 -3 -4 1 -8 9 -8 10 0 11 6
4 25 -8 22 -8 23 6 12 11 -9 15 -9 15 -1 0 7 5 9 12 5 7 -4 8 -3 4 5 -4 6 -13
9 -19 5 -7 -3 -5 0 4 8 9 7 14 23 12 36 -2 17 1 21 9 16 10 -6 10 -5 2 7 -14
17 -15 67 -2 75 5 3 3 13 -4 22 -10 12 -10 14 0 8 6 -4 12 -3 12 3 0 5 -6 12
-13 14 -7 4 -6 6 4 6 13 1 16 10 15 41 -1 21 0 37 3 35 2 -3 10 0 18 6 10 9
13 8 13 -1 0 -8 3 -10 6 -7 4 4 1 14 -7 24 -9 11 -10 14 -1 9 6 -4 12 -2 12 3
0 6 8 11 18 12 11 0 12 2 4 6 -10 4 -10 8 -1 19 9 11 9 14 -1 14 -10 0 -10 3
0 15 9 11 10 18 1 29 -9 11 -8 14 6 12 10 0 17 4 16 10 -1 8 6 10 19 6 16 -4
19 -2 13 9 -8 12 -6 12 8 0 15 -12 17 -12 12 1 -5 12 1 15 32 13 21 -1 41 3
46 9 5 8 10 6 18 -4 8 -12 9 -9 3 10 -6 22 -5 23 9 12 9 -8 21 -11 26 -7 6 3
20 1 31 -5 16 -9 22 -8 26 5 3 8 10 12 15 9 5 -3 6 -10 3 -16 -5 -7 -2 -8 5
-4 7 5 10 14 7 22 -3 8 0 11 10 7 7 -3 14 0 14 7 0 6 6 8 13 5 6 -4 3 1 -7 9
-23 19 -14 21 17 4 21 -11 21 -10 7 7 -9 11 -10 16 -2 11 7 -4 12 -2 12 6 0
10 3 9 11 -2 9 -12 10 -11 6 8 -3 12 -1 22 4 22 5 0 9 -6 9 -12 0 -9 4 -8 10
2 7 11 10 11 10 2 0 -7 5 -10 10 -7 6 4 7 12 3 18 -4 7 0 6 10 -2 9 -7 17 -19
17 -27 0 -7 4 -16 10 -19 7 -4 7 2 0 19 -6 17 -6 27 2 32 6 4 8 3 4 -4 -8 -14
23 -44 37 -35 9 5 9 3 0 -8 -10 -12 -8 -15 8 -16 11 -1 22 4 25 12 3 7 14 12
24 10 14 -3 17 1 13 12 -5 12 -3 14 7 8 8 -5 11 -4 7 3 -9 14 3 43 14 36 5 -3
9 0 9 5 0 6 -4 11 -10 11 -5 0 -10 5 -10 11 0 6 6 9 13 6 9 -3 11 8 10 40 -1
25 -4 47 -7 50 -10 10 37 51 55 48 13 -3 19 2 19 13 0 14 2 15 9 3 8 -13 12
-13 27 0 16 12 17 12 9 -1 -5 -10 -1 -8 13 4 12 10 19 23 15 29 -4 7 1 8 13 4
18 -7 18 -7 0 8 -18 14 -15 20 8 16 5 -1 4 5 -3 13 -11 13 -11 17 0 20 41 13
43 14 22 15 -27 1 -28 7 -9 43 10 19 11 30 4 34 -7 5 -8 2 -3 -6 5 -8 4 -11
-3 -6 -7 4 -5 17 6 39 16 31 18 36 25 67 1 8 9 26 17 40 8 14 13 28 12 33 -1
4 2 7 8 7 5 0 10 5 10 11 0 5 -5 7 -12 3 -7 -4 -8 -3 -4 4 4 7 14 12 22 12 8
0 14 5 14 11 0 5 5 7 12 3 7 -5 9 -2 5 9 -3 9 0 18 9 21 10 4 13 2 8 -7 -5 -8
-2 -8 9 2 9 7 15 17 12 21 -7 12 21 31 37 25 8 -3 21 1 28 10 7 8 23 15 37 15
20 0 24 4 22 23 -2 12 1 28 5 36 6 9 5 12 -1 8 -12 -7 -10 29 2 40 4 5 5 2 0
-6 -5 -9 -4 -12 3 -7 6 4 9 13 5 21 -3 8 0 15 7 15 6 0 8 4 5 10 -3 6 -2 10 3
10 6 0 8 10 4 22 -3 12 -1 19 5 15 11 -7 11 22 0 40 -5 7 0 10 15 7 13 -2 17
-2 11 2 -7 3 -13 10 -13 15 0 6 5 7 10 4 6 -3 10 3 10 14 0 11 5 23 11 27 8 4
7 9 -2 16 -10 7 -7 8 9 5 23 -6 24 -5 5 15 -10 12 -13 18 -6 15 6 -4 17 -1 25
8 32 35 38 45 30 45 -5 0 -17 -10 -25 -22 -9 -13 -16 -18 -16 -12 -1 5 9 21
22 34 12 14 21 28 19 32 -1 5 3 8 8 8 7 0 7 6 0 19 -9 18 -7 19 18 16 15 -2
21 -2 15 1 -19 8 -16 38 6 54 18 12 19 15 3 26 -14 10 -13 12 8 10 15 0 24 4
22 12 -1 6 3 12 9 12 5 0 7 6 3 13 -5 8 -3 8 9 -2 14 -11 18 -11 22 1 4 9 16
14 28 14 12 -1 28 3 36 8 11 8 13 8 7 -1 -5 -9 0 -13 13 -13 19 0 21 6 22 60
1 93 1 129 -1 138 -1 4 -1 18 0 31 1 17 -2 21 -12 15 -10 -6 -10 -5 1 9 11 14
11 18 -1 22 -10 4 -13 15 -10 30 2 15 9 22 16 18 6 -4 4 2 -4 12 -8 10 -10 16
-4 12 8 -5 13 8 16 39 2 25 0 48 -5 51 -4 2 -5 8 -2 13 5 8 9 124 5 145 -1 6
-1 31 0 56 1 40 -3 49 -29 70 -16 13 -27 27 -25 31 8 12 -11 9 -23 -3 -9 -9
-10 -6 -6 12 3 13 3 21 -2 17 -4 -4 -14 0 -22 8 -8 8 -20 11 -26 7 -7 -4 -6 1
2 10 10 13 11 20 2 31 -7 8 -8 17 -3 20 4 2 7 28 6 56 -2 32 1 48 7 44 6 -3 9
2 7 12 -2 14 2 18 17 16 11 -2 17 -1 13 3 -4 4 0 14 8 22 8 9 13 22 9 31 -4
11 -2 12 7 4 10 -8 13 2 13 51 0 43 5 66 15 75 13 12 12 13 -5 8 -17 -5 -18
-4 -5 6 8 7 17 27 19 43 1 17 8 33 15 37 8 6 7 8 -2 8 -9 0 -9 5 2 23 10 15
12 27 6 37 -7 10 -10 11 -10 3 0 -7 -5 -13 -12 -13 -6 0 -8 3 -5 7 4 3 -3 17
-15 30 -12 13 -18 23 -13 23 4 0 14 -8 22 -17 12 -16 12 -14 2 10 -7 15 -16
27 -21 27 -10 0 -6 39 6 59 6 9 5 12 -1 8 -15 -9 -13 76 1 85 8 5 8 8 0 8 -16
0 -12 42 5 48 9 3 11 0 6 -8 -5 -9 -4 -11 4 -6 6 4 8 13 4 19 -11 16 -11 57 0
57 4 0 5 5 2 10 -3 6 1 13 10 16 13 5 13 9 3 22 -10 12 -10 14 0 8 16 -10 34
2 25 17 -11 17 -11 47 -1 47 5 0 6 10 3 21 -5 13 -3 19 3 15 5 -3 13 2 17 11
3 10 2 19 -3 21 -11 3 -4 74 7 82 15 10 20 40 8 40 -7 0 -8 3 -2 8 6 4 10 16
10 27 0 11 -4 23 -10 27 -6 5 -4 8 5 8 13 0 13 1 0 10 -9 6 -11 10 -3 10 7 0
10 6 7 14 -3 8 0 17 7 22 7 4 15 2 17 -5 3 -8 8 -6 17 6 13 17 14 17 28 -1 14
-18 14 -18 21 0 8 18 8 18 16 -1 4 -11 8 476 9 1082 l0 1102 -4925 0 c-4308 0
-4926 -2 -4930 -14z m-634 -1539 c0 -2 -7 -7 -16 -10 -8 -3 -12 -2 -9 4 6 10
25 14 25 6z m-195 -375 c3 -5 2 -12 -3 -15 -5 -3 -9 1 -9 9 0 17 3 19 12 6z
m10403 -2366 c-3 -3 -9 2 -12 12 -6 14 -5 15 5 6 7 -7 10 -15 7 -18z m-9605
-3080 c-3 -9 -8 -14 -10 -11 -3 3 -2 9 2 15 9 16 15 13 8 -4z m7447 -208 c0
-2 -10 -12 -22 -23 l-23 -19 19 23 c18 21 26 27 26 19z m-1040 -2321 c0 -2 -8
-10 -17 -17 -16 -13 -17 -12 -4 4 13 16 21 21 21 13z m-80 -90 c0 -11 -19 -15
-25 -6 -3 5 1 10 9 10 9 0 16 -2 16 -4z m-5619 -323 c13 -16 12 -17 -3 -4 -17
13 -22 21 -14 21 2 0 10 -8 17 -17z m5159 -68 c-7 -8 -17 -15 -22 -15 -11 0
14 29 26 30 5 0 3 -7 -4 -15z"/>
<path d="M10620 6492 c0 -6 5 -14 10 -17 6 -4 7 -11 4 -17 -4 -7 -2 -8 5 -4 9
6 9 12 -1 24 -7 10 -14 19 -15 21 -2 2 -3 -1 -3 -7z"/>
<path d="M10650 6440 c0 -5 5 -10 11 -10 5 0 7 5 4 10 -3 6 -8 10 -11 10 -2 0
-4 -4 -4 -10z"/>
<path d="M10675 6399 c-3 -4 2 -6 10 -5 21 3 28 13 10 13 -9 0 -18 -4 -20 -8z"/>
<path d="M10135 5659 c-4 -6 -4 -13 -1 -16 3 -4 6 -1 6 6 0 7 5 9 12 5 7 -4 8
-3 4 4 -9 15 -13 15 -21 1z"/>
<path d="M10376 5502 c-3 -5 1 -9 9 -9 8 0 12 4 9 9 -3 4 -7 8 -9 8 -2 0 -6
-4 -9 -8z"/>
<path d="M10055 5491 c-3 -5 -2 -12 3 -15 5 -3 9 1 9 9 0 17 -3 19 -12 6z"/>
<path d="M9576 4647 c3 -10 9 -15 12 -12 3 3 0 11 -7 18 -10 9 -11 8 -5 -6z"/>
<path d="M9435 4270 c-3 -5 -1 -10 4 -10 6 0 11 5 11 10 0 6 -2 10 -4 10 -3 0
-8 -4 -11 -10z"/>
<path d="M9050 4259 c0 -5 5 -7 10 -4 6 3 10 8 10 11 0 2 -4 4 -10 4 -5 0 -10
-5 -10 -11z"/>
<path d="M8916 3897 c3 -10 9 -15 12 -12 3 3 0 11 -7 18 -10 9 -11 8 -5 -6z"/>
<path d="M9220 3460 c-9 -6 -10 -10 -3 -10 6 0 15 5 18 10 8 12 4 12 -15 0z"/>
<path d="M8487 3436 c-4 -10 -1 -13 9 -9 7 3 14 9 14 14 0 14 -17 10 -23 -5z"/>
<path d="M9200 3431 c0 -6 4 -13 10 -16 6 -3 7 1 4 9 -7 18 -14 21 -14 7z"/>
<path d="M8974 3308 c-4 -7 -4 -10 1 -6 4 4 15 2 24 -5 14 -11 14 -10 2 6 -16
20 -18 21 -27 5z"/>
<path d="M9021 3296 c2 -2 22 -15 45 -29 29 -18 45 -22 55 -15 11 8 11 9 -2 5
-9 -3 -26 3 -38 14 -12 11 -21 16 -21 12 0 -4 -5 -2 -12 5 -7 7 -16 12 -22 12
-5 0 -7 -2 -5 -4z"/>
<path d="M7883 1736 c-10 -11 -9 -16 5 -21 9 -3 13 -3 9 1 -4 4 -2 13 4 21 15
17 -2 16 -18 -1z"/>
<path d="M7796 1581 c-3 -5 1 -11 9 -14 9 -4 12 -1 8 9 -6 16 -10 17 -17 5z"/>
<path d="M1198 833 c7 -3 16 -2 19 1 4 3 -2 6 -13 5 -11 0 -14 -3 -6 -6z"/>
<path d="M1635 441 c-3 -5 -1 -12 5 -16 5 -3 10 -3 10 1 0 3 8 0 18 -7 14 -11
13 -10 -2 9 -22 25 -23 25 -31 13z"/>
<path d="M6376 92 c-3 -4 4 -9 15 -9 23 -2 25 3 4 10 -8 4 -16 3 -19 -1z"/>
</g>
</svg>
